<svg xmlns="http://www.w3.org/2000/svg" width="17.416" height="17.416" fill="#dc3545" viewBox="0 0 17.416 17.416"><g transform="translate(-135.903 -212.843)"><path d="M13.725,7.92a.726.726,0,0,0-1.026,0L10.822,9.8,8.946,7.92A.726.726,0,1,0,7.92,8.946L9.8,10.822,7.92,12.7a.726.726,0,1,0,1.026,1.026l1.877-1.877L12.7,13.725A.726.726,0,1,0,13.725,12.7l-1.877-1.877,1.877-1.877A.726.726,0,0,0,13.725,7.92Z" transform="translate(133.789 210.729)"/><path d="M8.708,0a8.708,8.708,0,1,0,8.708,8.708A8.708,8.708,0,0,0,8.708,0Zm0,15.965a7.257,7.257,0,1,1,7.257-7.257A7.257,7.257,0,0,1,8.708,15.965Z" transform="translate(135.903 212.843)"/></g></svg>