<svg xmlns="http://www.w3.org/2000/svg" width="14.19" height="17.028" fill= "#ffc107" viewBox="0 0 14.19 17.028"><path d="M14.735,3.928,12.263,1.454A4.937,4.937,0,0,0,8.751,0h-3.2A3.552,3.552,0,0,0,2,3.547V13.48a3.552,3.552,0,0,0,3.547,3.547h7.095A3.552,3.552,0,0,0,16.19,13.48V7.439a4.932,4.932,0,0,0-1.455-3.511Zm-1,1a3.535,3.535,0,0,1,.554.745H11.223a.709.709,0,0,1-.709-.709V1.9a3.555,3.555,0,0,1,.746.553Zm1.039,8.549a2.128,2.128,0,0,1-2.128,2.128H5.547A2.128,2.128,0,0,1,3.419,13.48V3.547A2.128,2.128,0,0,1,5.547,1.419h3.2c.116,0,.229.023.344.033V4.966a2.128,2.128,0,0,0,2.128,2.128h3.514c.011.115.033.227.033.344Z" transform="translate(-2 0)"/></svg>