<?xml version="1.0" standalone="no"?>
<!DOCTYPE svg PUBLIC "-//W3C//DTD SVG 20010904//EN"
 "http://www.w3.org/TR/2001/REC-SVG-20010904/DTD/svg10.dtd">
<svg version="1.0" xmlns="http://www.w3.org/2000/svg"
 width="360.000000pt" height="360.000000pt" viewBox="0 0 360.000000 360.000000"
 preserveAspectRatio="xMidYMid meet">

<g transform="translate(0.000000,360.000000) scale(0.100000,-0.100000)"
fill="#000000" stroke="none">
<path d="M1597 3164 c-450 -70 -826 -344 -1029 -749 -60 -119 -113 -275 -93
-275 2 0 95 -25 205 -55 110 -30 204 -55 209 -55 5 0 17 24 27 53 47 144 150
307 255 401 333 300 816 325 1181 62 57 -41 74 -62 40 -52 -10 3 -51 7 -91 7
-58 1 -79 -3 -99 -18 -45 -34 -65 -70 -69 -125 -7 -99 48 -160 154 -172 32 -3
194 -20 361 -36 284 -27 306 -28 343 -13 22 8 48 27 59 40 45 58 44 74 -19
488 -42 272 -66 396 -79 418 -22 39 -86 77 -130 77 -47 0 -94 -22 -125 -59
-36 -44 -42 -71 -31 -157 6 -41 9 -74 7 -74 -2 0 -29 20 -60 43 -278 209 -667
306 -1016 251z"/>
<path d="M2685 1518 c-71 -219 -237 -420 -438 -532 -309 -172 -703 -146 -999
68 -32 22 -58 43 -58 46 0 3 39 4 87 2 79 -3 92 -1 123 20 50 34 72 81 67 146
-2 32 -12 63 -24 80 -42 56 -56 59 -437 96 -335 33 -360 34 -397 19 -22 -8
-48 -27 -59 -40 -45 -58 -44 -74 19 -488 42 -272 66 -396 79 -418 22 -39 86
-77 130 -77 73 0 145 57 158 125 3 19 2 64 -3 100 -5 36 -8 65 -6 65 1 0 29
-20 60 -43 128 -96 306 -181 466 -222 636 -161 1287 135 1579 720 61 120 113
275 93 275 -3 0 -95 25 -204 55 -109 30 -203 55 -209 55 -6 0 -18 -24 -27 -52z"/>
</g>
</svg>
