<svg xmlns="http://www.w3.org/2000/svg" width="18.057" height="20.069" viewBox="0 0 18.057 20.069"><g transform="translate(-1655.916 -533.434)"><path d="M11.345,8a3.345,3.345,0,1,0,3.345,3.345A3.345,3.345,0,0,0,11.345,8Zm0,5.017a1.672,1.672,0,1,1,1.672-1.672A1.672,1.672,0,0,1,11.345,13.017Z" transform="translate(1653.6 532.123)"/><path d="M18,11.623l-.371-.214a7.609,7.609,0,0,0,0-2.751L18,8.444A2.51,2.51,0,0,0,15.494,4.1l-.372.215A7.507,7.507,0,0,0,12.74,2.938V2.509a2.509,2.509,0,1,0-5.017,0v.429A7.507,7.507,0,0,0,5.341,4.314L4.968,4.1A2.51,2.51,0,1,0,2.459,8.446l.371.214a7.609,7.609,0,0,0,0,2.751l-.371.214a2.51,2.51,0,1,0,2.509,4.348l.372-.215a7.507,7.507,0,0,0,2.383,1.373v.429a2.509,2.509,0,0,0,5.017,0v-.429a7.507,7.507,0,0,0,2.381-1.376l.374.216A2.51,2.51,0,1,0,18,11.622ZM15.872,8.466a5.894,5.894,0,0,1,0,3.136.836.836,0,0,0,.388.947l.906.523a.837.837,0,1,1-.836,1.449L15.423,14a.836.836,0,0,0-1.016.138A5.84,5.84,0,0,1,11.695,15.7a.836.836,0,0,0-.628.81V17.56a.836.836,0,0,1-1.672,0V16.513a.836.836,0,0,0-.628-.81,5.84,5.84,0,0,1-2.711-1.571.836.836,0,0,0-1.016-.138l-.906.524A.836.836,0,1,1,3.3,13.07l.906-.523a.836.836,0,0,0,.388-.947,5.894,5.894,0,0,1,0-3.136A.836.836,0,0,0,4.2,7.519L3.3,7a.837.837,0,0,1,.836-1.449l.908.525a.836.836,0,0,0,1.015-.135A5.84,5.84,0,0,1,8.767,4.369.836.836,0,0,0,9.4,3.556V2.509a.836.836,0,1,1,1.672,0V3.556a.836.836,0,0,0,.628.81,5.84,5.84,0,0,1,2.712,1.571.836.836,0,0,0,1.016.138l.906-.524A.836.836,0,1,1,17.166,7l-.906.523a.836.836,0,0,0-.387.944Z" transform="translate(1654.713 533.434)"/></g></svg>