<svg xmlns="http://www.w3.org/2000/svg" width="19.996" height="19.995" fill="#007bff" viewBox="0 0 19.996 19.995"><path d="M19.11.974a3.032,3.032,0,0,0-4.285,0l-13.6,13.6A4.154,4.154,0,0,0,0,17.53v1.717a.836.836,0,0,0,.836.836H2.553a4.153,4.153,0,0,0,2.956-1.224l13.6-13.6a3.032,3.032,0,0,0,0-4.284ZM4.326,17.677a2.527,2.527,0,0,1-1.774.734H1.672V17.53a2.492,2.492,0,0,1,.735-1.774L12.729,5.435l1.923,1.923Zm13.6-13.6-2.1,2.1L13.908,4.253l2.1-2.1A1.358,1.358,0,1,1,17.923,4.08Z" transform="translate(0 -0.088)"/></svg>