<svg xmlns="http://www.w3.org/2000/svg" width="17.028" height="17.028" fill="#159cb1" viewBox="0 0 17.028 17.028"><g transform="translate(-1004.081 -343.548)"><path d="M8.514,0a8.514,8.514,0,1,0,8.514,8.514A8.514,8.514,0,0,0,8.514,0Zm0,15.609a7.095,7.095,0,1,1,7.095-7.095A7.095,7.095,0,0,1,8.514,15.609Z" transform="translate(1004.081 343.548)"/><path d="M11.419,10h-.709a.709.709,0,1,0,0,1.419h.709v4.257a.709.709,0,0,0,1.419,0V11.419A1.419,1.419,0,0,0,11.419,10Z" transform="translate(1001.176 340.643)"/><ellipse cx="1.064" cy="1.064" rx="1.064" ry="1.064" transform="translate(1011.531 347.095)"/></g></svg>