<?xml version="1.0" standalone="no"?>
<!DOCTYPE svg PUBLIC "-//W3C//DTD SVG 20010904//EN"
 "http://www.w3.org/TR/2001/REC-SVG-20010904/DTD/svg10.dtd">
<svg version="1.0" xmlns="http://www.w3.org/2000/svg"
 width="699.000000pt" height="163.000000pt" viewBox="0 0 699.000000 163.000000"
 preserveAspectRatio="xMidYMid meet">

<g transform="translate(0.000000,163.000000) scale(0.100000,-0.100000)"
fill="#000000" stroke="none">
<path d="M3000 1355 l0 -145 160 0 160 0 0 145 0 145 -160 0 -160 0 0 -145z
m140 70 c15 -18 5 -49 -14 -42 -29 11 4 -51 42 -79 20 -16 32 -21 25 -13 -7 8
-8 20 -4 28 7 11 12 10 30 0 28 -18 27 -37 -5 -49 -19 -8 -32 -6 -53 6 -52 31
-110 147 -65 130 8 -3 12 -2 9 4 -7 11 2 30 14 30 5 0 14 -7 21 -15z"/>
<path d="M3474 1422 c-35 -23 -21 -92 19 -92 30 0 47 18 47 50 0 41 -34 63
-66 42z m41 -42 c0 -16 -6 -26 -17 -28 -14 -3 -18 3 -18 28 0 25 4 31 18 28
11 -2 17 -12 17 -28z"/>
<path d="M3573 1418 c-5 -7 -9 -29 -9 -48 1 -31 4 -35 30 -38 39 -5 48 7 38
54 -8 41 -39 58 -59 32z m37 -18 c0 -5 -4 -10 -10 -10 -5 0 -10 5 -10 10 0 6
5 10 10 10 6 0 10 -4 10 -10z m-2 -41 c-2 -6 -8 -10 -13 -10 -5 0 -11 4 -13
10 -2 6 4 11 13 11 9 0 15 -5 13 -11z"/>
<path d="M3658 1405 c-16 -35 3 -75 35 -75 30 0 47 18 47 50 0 52 -61 71 -82
25z m57 -25 c0 -15 -6 -26 -16 -28 -19 -3 -31 21 -22 43 9 25 38 13 38 -15z"/>
<path d="M3772 1418 c-7 -7 -12 -24 -12 -38 0 -53 62 -72 81 -24 18 49 -35 96
-69 62z m46 -41 c3 -22 -1 -27 -17 -27 -15 0 -21 6 -21 23 0 46 33 49 38 4z"/>
<path d="M3917 1423 c-14 -13 -6 -24 13 -18 29 9 26 -21 -5 -41 -36 -23 -31
-34 15 -34 41 0 58 19 18 21 -13 0 -17 3 -10 6 22 9 35 43 21 59 -12 15 -41
19 -52 7z"/>
<path d="M4013 1418 c-19 -25 -21 -46 -7 -67 20 -28 50 -27 70 4 15 23 15 27
0 50 -18 27 -48 33 -63 13z m45 -41 c3 -22 -1 -27 -17 -27 -15 0 -21 6 -21 23
0 46 33 49 38 4z"/>
<path d="M4164 1422 c-19 -12 -26 -50 -14 -72 17 -32 65 -24 65 10 0 18 -6 26
-22 28 -31 5 -29 22 3 22 14 0 23 4 19 10 -7 12 -35 13 -51 2z m36 -63 c0 -5
-7 -9 -15 -9 -15 0 -20 12 -9 23 8 8 24 -1 24 -14z"/>
<path d="M4251 1411 c-24 -44 -3 -86 40 -79 32 4 45 31 33 65 -12 36 -57 44
-73 14z m54 -31 c0 -16 -6 -26 -18 -28 -19 -4 -32 20 -23 44 9 25 41 13 41
-16z"/>
<path d="M4363 1418 c-17 -22 -21 -42 -12 -66 11 -29 55 -27 75 3 26 40 -34
100 -63 63z m45 -41 c3 -22 -1 -27 -17 -27 -15 0 -21 6 -21 23 0 46 33 49 38
4z"/>
<path d="M1950 1382 c0 -2 15 -23 34 -48 29 -38 55 -92 72 -151 2 -9 24 -13
64 -13 l60 0 0 -325 0 -325 85 0 c83 0 86 1 123 34 l37 34 3 291 3 290 137 3
137 3 0 103 0 102 -378 3 c-207 1 -377 1 -377 -1z"/>
<path d="M557 982 c-131 -218 -247 -412 -259 -430 l-20 -33 132 3 132 3 50 83
50 82 139 0 139 0 0 -85 0 -85 120 0 120 0 0 396 0 396 -34 34 -34 34 -148 0
-149 -1 -238 -397z m361 26 l-3 -123 -78 -3 c-44 -2 -77 1 -75 5 14 33 145
243 151 243 4 0 6 -55 5 -122z"/>
<path d="M1270 950 l0 -430 79 0 c139 0 175 46 169 223 -3 92 -2 97 18 97 16
0 41 -35 114 -160 l93 -160 139 0 c76 0 138 2 138 5 0 2 -49 82 -110 177 -109
172 -109 173 -88 188 97 66 132 125 132 225 0 122 -66 206 -189 244 -59 18
-93 21 -281 21 l-214 0 0 -430z m405 216 c46 -30 39 -112 -11 -135 -14 -6 -53
-11 -87 -11 l-62 0 2 82 c1 46 2 85 3 87 1 10 135 -10 155 -23z"/>
<path d="M3000 995 l0 -145 160 0 160 0 0 145 0 145 -160 0 -160 0 0 -145z
m245 5 l0 -45 -65 -3 c-97 -5 -110 1 -110 47 0 21 3 41 7 45 4 4 43 5 88 4
l80 -3 0 -45z"/>
<path d="M3101 1021 l24 -19 -20 -24 -20 -23 23 19 c28 25 79 26 99 4 9 -10
21 -18 26 -18 6 0 1 11 -12 24 l-22 23 23 17 c13 10 7 8 -13 -3 -45 -26 -57
-26 -89 -1 -14 11 -29 20 -34 20 -4 0 2 -9 15 -19z"/>
<path d="M3450 1040 c0 -5 5 -10 10 -10 6 0 10 5 10 10 0 6 -4 10 -10 10 -5 0
-10 -4 -10 -10z"/>
<path d="M3586 1034 c-12 -32 -7 -84 9 -84 9 0 15 10 16 23 1 12 3 34 5 50 3
30 -19 39 -30 11z"/>
<path d="M4370 1040 c0 -5 5 -10 10 -10 6 0 10 5 10 10 0 6 -4 10 -10 10 -5 0
-10 -4 -10 -10z"/>
<path d="M4019 1028 c-5 -56 10 -96 30 -84 7 5 7 13 -1 26 -10 15 -10 22 -1
31 9 9 8 15 -2 25 -17 17 -25 18 -26 2z"/>
<path d="M4309 1028 c-3 -29 4 -64 13 -76 15 -17 21 -8 23 30 1 33 -10 58 -26
58 -5 0 -9 -6 -10 -12z"/>
<path d="M4819 1028 c-3 -34 4 -74 14 -80 19 -11 27 2 14 23 -10 16 -9 21 2
29 12 7 12 11 2 24 -16 19 -31 21 -32 4z"/>
<path d="M3450 985 c0 -19 5 -35 10 -35 6 0 10 16 10 35 0 19 -4 35 -10 35 -5
0 -10 -16 -10 -35z"/>
<path d="M3490 986 c0 -20 5 -36 10 -36 6 0 10 11 10 25 0 16 6 25 15 25 9 0
15 -9 15 -25 0 -14 5 -25 11 -25 6 0 9 14 7 33 -3 28 -7 32 -35 35 -32 3 -33
2 -33 -32z"/>
<path d="M3642 1008 c-32 -32 7 -80 49 -58 30 17 23 64 -11 68 -14 2 -31 -3
-38 -10z m48 -22 c0 -8 -5 -18 -11 -22 -14 -8 -33 11 -25 25 10 16 36 13 36
-3z"/>
<path d="M3759 999 c-14 -27 1 -44 39 -44 25 0 27 3 24 30 -3 24 -9 31 -28 33
-15 1 -27 -6 -35 -19z m41 -14 c0 -8 -7 -15 -15 -15 -16 0 -20 12 -8 23 11 12
23 8 23 -8z"/>
<path d="M3880 1011 c0 -5 10 -12 23 -14 l22 -4 -23 -2 c-26 -1 -41 -29 -23
-40 7 -5 23 -6 37 -3 21 4 25 9 22 36 -2 25 -8 32 -30 34 -16 2 -28 -1 -28 -7z
m35 -41 c-3 -5 -10 -10 -16 -10 -5 0 -9 5 -9 10 0 6 7 10 16 10 8 0 12 -4 9
-10z"/>
<path d="M3954 985 c1 -36 26 -51 26 -16 0 11 5 23 10 26 18 11 11 25 -13 25
-20 0 -23 -5 -23 -35z"/>
<path d="M4080 985 c0 -19 5 -35 10 -35 6 0 10 11 10 25 0 14 5 25 10 25 6 0
10 -11 10 -25 0 -16 6 -25 15 -25 9 0 15 9 15 25 0 14 5 25 10 25 6 0 10 -11
10 -25 0 -16 6 -25 15 -25 15 0 20 26 9 54 -5 12 -20 16 -60 16 l-54 0 0 -35z"/>
<path d="M4222 1008 c-16 -16 -15 -33 4 -52 20 -21 30 -20 54 4 16 16 18 25
10 40 -12 22 -49 27 -68 8z m48 -22 c0 -8 -5 -18 -11 -22 -14 -8 -33 11 -25
25 10 16 36 13 36 -3z"/>
<path d="M4370 985 c0 -19 5 -35 10 -35 6 0 10 16 10 35 0 19 -4 35 -10 35 -5
0 -10 -16 -10 -35z"/>
<path d="M4422 1008 c-32 -32 7 -80 49 -58 30 17 23 64 -11 68 -14 2 -31 -3
-38 -10z m46 -25 c-2 -10 -10 -18 -18 -18 -8 0 -16 8 -18 18 -2 12 3 17 18 17
15 0 20 -5 18 -17z"/>
<path d="M4510 986 c0 -20 5 -36 10 -36 6 0 10 11 10 25 0 16 6 25 15 25 9 0
15 -9 15 -25 0 -14 5 -25 11 -25 6 0 9 14 7 33 -3 28 -7 32 -35 35 -32 3 -33
2 -33 -32z"/>
<path d="M4640 986 c0 -20 5 -36 10 -36 6 0 10 11 10 25 0 16 6 25 15 25 9 0
15 -9 15 -25 0 -14 5 -25 11 -25 6 0 9 14 7 33 -3 28 -7 32 -35 35 -32 3 -33
2 -33 -32z"/>
<path d="M4737 1014 c-14 -14 -7 -54 12 -64 21 -11 54 -3 46 11 -3 4 -12 6
-20 2 -8 -3 -15 0 -15 6 0 6 9 11 21 11 30 0 20 34 -11 38 -14 2 -29 0 -33 -4z
m38 -14 c3 -5 -1 -10 -10 -10 -9 0 -13 5 -10 10 3 6 8 10 10 10 2 0 7 -4 10
-10z"/>
<path d="M4600 960 c0 -5 5 -10 10 -10 6 0 10 5 10 10 0 6 -4 10 -10 10 -5 0
-10 -4 -10 -10z"/>
<path d="M3000 640 l0 -150 160 0 160 0 0 150 0 150 -160 0 -160 0 0 -150z
m190 70 c5 -8 6 -18 4 -22 -3 -4 0 -8 6 -8 7 0 9 9 5 23 -6 20 -4 19 19 -7 14
-16 26 -41 26 -56 0 -27 -37 -86 -48 -76 -3 3 -11 1 -18 -5 -18 -14 -68 -2
-89 21 -28 31 -29 82 -3 112 32 37 81 45 98 18z"/>
<path d="M3117 703 c-4 -3 -7 -13 -7 -21 0 -18 13 -7 16 13 2 17 1 18 -9 8z"/>
<path d="M3150 680 c0 -5 5 -10 10 -10 6 0 10 5 10 10 0 6 -4 10 -10 10 -5 0
-10 -4 -10 -10z"/>
<path d="M3207 651 c-2 -10 -1 -25 4 -32 6 -10 9 -4 9 19 0 36 -5 42 -13 13z"/>
<path d="M3100 640 c0 -5 5 -10 10 -10 6 0 10 5 10 10 0 6 -4 10 -10 10 -5 0
-10 -4 -10 -10z"/>
<path d="M3150 640 c0 -5 5 -10 10 -10 6 0 10 5 10 10 0 6 -4 10 -10 10 -5 0
-10 -4 -10 -10z"/>
<path d="M3144 599 c-15 -6 -12 -8 13 -8 17 -1 39 -4 49 -8 11 -4 15 -3 11 4
-9 15 -49 21 -73 12z"/>
<path d="M3105 590 c-3 -5 -1 -10 4 -10 6 0 11 5 11 10 0 6 -2 10 -4 10 -3 0
-8 -4 -11 -10z"/>
<path d="M4345 700 c-3 -5 1 -10 10 -10 9 0 13 5 10 10 -3 6 -8 10 -10 10 -2
0 -7 -4 -10 -10z"/>
<path d="M3995 688 c-11 -28 -1 -83 16 -86 12 -2 15 6 14 38 -1 44 -20 74 -30
48z"/>
<path d="M4285 689 c-2 -8 -3 -27 -1 -44 3 -16 5 -33 5 -37 1 -5 7 -8 14 -8 9
0 13 13 12 40 -1 43 -20 75 -30 49z"/>
<path d="M4796 691 c-11 -17 6 -91 20 -91 7 0 16 5 19 10 3 6 1 10 -4 10 -14
0 -14 37 0 42 6 2 2 11 -9 21 -12 11 -22 14 -26 8z"/>
<path d="M3445 648 c12 -55 28 -65 41 -26 l7 23 8 -23 c5 -12 13 -22 18 -22 8
0 31 52 31 71 0 18 -19 8 -26 -13 l-7 -23 -9 25 c-9 23 -10 24 -22 8 -16 -22
-26 -23 -26 -3 0 8 -5 15 -11 15 -7 0 -8 -12 -4 -32z"/>
<path d="M3564 664 c3 -9 9 -27 12 -40 8 -30 22 -31 34 -1 l9 22 7 -22 c9 -31
22 -29 35 4 14 37 6 67 -9 33 l-11 -25 -7 23 c-8 28 -22 28 -33 0 l-8 -22 -5
22 c-4 12 -12 22 -18 22 -7 0 -10 -7 -6 -16z"/>
<path d="M3690 666 c0 -24 19 -66 30 -66 5 0 10 7 10 15 0 8 5 15 10 15 6 0
10 -7 10 -15 0 -29 27 -15 37 20 12 39 -2 60 -16 23 l-8 -23 -7 23 c-9 28 -20
28 -34 0 -8 -18 -11 -19 -11 -6 -1 21 -21 35 -21 14z"/>
<path d="M3850 670 c0 -5 10 -10 23 -11 20 0 19 -2 -6 -11 -39 -14 -32 -42 11
-46 30 -3 32 -2 32 31 0 23 -6 37 -16 41 -24 9 -44 7 -44 -4z m40 -44 c0 -11
-19 -15 -25 -6 -3 5 1 10 9 10 9 0 16 -2 16 -4z"/>
<path d="M3930 640 c0 -22 5 -40 10 -40 6 0 10 11 10 24 0 13 7 27 16 30 20 8
12 19 -16 23 -17 2 -20 -3 -20 -37z"/>
<path d="M4050 639 c0 -44 17 -53 22 -11 4 33 22 32 26 -3 5 -36 22 -31 22 6
0 38 24 35 28 -4 5 -42 24 -32 20 11 l-3 37 -57 1 -58 1 0 -38z"/>
<path d="M4196 664 c-19 -18 -19 -20 -6 -45 6 -11 21 -19 35 -19 20 0 45 24
45 44 0 10 -32 36 -45 36 -7 0 -21 -7 -29 -16z m44 -24 c0 -11 -6 -20 -13 -20
-19 0 -27 10 -20 26 8 21 33 17 33 -6z"/>
<path d="M4344 666 c-8 -22 -1 -59 14 -64 8 -2 12 8 12 32 0 37 -16 57 -26 32z"/>
<path d="M4396 664 c-19 -18 -19 -20 -6 -45 6 -11 21 -19 35 -19 20 0 45 24
45 44 0 10 -32 36 -45 36 -7 0 -21 -7 -29 -16z m49 -24 c0 -8 -8 -16 -17 -18
-13 -2 -18 3 -18 18 0 15 5 20 18 18 9 -2 17 -10 17 -18z"/>
<path d="M4480 638 c0 -27 4 -38 13 -35 6 2 12 14 12 27 0 13 6 25 13 28 8 2
12 -7 12 -27 0 -17 5 -31 11 -31 6 0 9 16 7 38 -3 34 -6 37 -35 39 -32 1 -33
0 -33 -39z"/>
<path d="M4615 671 c-3 -2 -5 -20 -5 -38 0 -41 23 -41 28 0 4 37 22 34 22 -3
0 -28 9 -38 22 -25 3 3 2 20 -1 38 -6 26 -12 32 -34 32 -15 1 -30 -1 -32 -4z"/>
<path d="M4710 665 c-25 -30 9 -76 46 -60 17 7 17 8 -6 15 -23 7 -23 8 -3 9
29 1 37 16 17 35 -19 20 -38 20 -54 1z"/>
<path d="M3800 610 c0 -5 5 -10 10 -10 6 0 10 5 10 10 0 6 -4 10 -10 10 -5 0
-10 -4 -10 -10z"/>
<path d="M4570 610 c0 -5 5 -10 10 -10 6 0 10 5 10 10 0 6 -4 10 -10 10 -5 0
-10 -4 -10 -10z"/>
<path d="M3000 280 l0 -150 160 0 160 0 0 150 0 150 -160 0 -160 0 0 -150z
m219 49 c33 -30 41 -43 33 -51 -9 -9 -22 -4 -52 21 l-41 32 -36 -31 c-26 -24
-38 -29 -47 -20 -8 8 0 21 31 51 23 21 48 39 55 39 7 -1 33 -19 57 -41z m-21
-39 c39 -36 43 -70 8 -70 -18 0 -25 6 -28 23 -2 12 -10 22 -18 22 -8 0 -16
-10 -18 -22 -4 -28 -52 -34 -52 -6 0 16 57 83 69 83 4 0 21 -14 39 -30z"/>
<path d="M1270 324 c0 -93 1 -95 23 -92 18 2 23 11 27 48 l5 44 19 -28 18 -29
24 29 23 29 1 -47 c0 -44 2 -48 25 -48 25 0 25 0 25 95 0 94 0 95 -24 95 -17
0 -31 -10 -43 -30 -9 -16 -21 -30 -24 -30 -4 0 -17 14 -29 30 -14 19 -30 30
-46 30 -24 0 -24 -1 -24 -96z"/>
<path d="M1529 391 c-42 -42 -41 -99 2 -135 80 -68 198 10 159 105 -26 62
-112 78 -161 30z m99 -33 c7 -7 12 -21 12 -33 0 -44 -60 -63 -80 -26 -14 27
-13 37 6 55 18 19 45 21 62 4z"/>
<path d="M1720 395 c0 -21 5 -25 30 -25 l30 0 0 -71 c0 -67 1 -70 23 -67 20 3
23 10 27 68 5 62 6 65 33 68 21 3 27 9 27 28 0 24 -2 24 -85 24 -84 0 -85 0
-85 -25z"/>
<path d="M1930 324 c0 -93 1 -95 23 -92 21 3 22 8 25 96 l3 92 -26 0 -25 0 0
-96z"/>
<path d="M2050 393 c-50 -44 -40 -126 17 -152 109 -50 201 78 111 154 -40 34
-88 33 -128 -2z m98 -35 c28 -28 7 -78 -33 -78 -27 0 -45 18 -45 45 0 27 18
45 45 45 12 0 26 -5 33 -12z"/>
<path d="M2250 324 c0 -93 1 -95 23 -92 18 2 23 10 25 46 2 23 6 42 10 42 4
-1 22 -21 40 -45 23 -32 40 -45 57 -45 25 0 25 1 25 95 0 94 0 95 -24 95 -23
0 -25 -4 -28 -52 l-3 -53 -37 53 c-29 39 -44 52 -63 52 -25 0 -25 0 -25 -96z"/>
<path d="M3442 373 c3 -48 3 -48 41 -51 21 -2 37 1 37 7 0 6 -11 11 -25 11
-22 0 -25 4 -25 40 0 30 -4 40 -16 40 -12 0 -14 -10 -12 -47z"/>
<path d="M3538 413 c7 -3 16 -2 19 1 4 3 -2 6 -13 5 -11 0 -14 -3 -6 -6z"/>
<path d="M3630 407 c0 -8 -10 -13 -21 -13 -12 1 -26 -7 -33 -16 -16 -26 4 -52
43 -56 l31 -3 0 50 c0 28 -4 51 -10 51 -5 0 -10 -6 -10 -13z m0 -47 c0 -21
-24 -28 -35 -10 -8 14 3 30 21 30 8 0 14 -9 14 -20z"/>
<path d="M3670 370 c0 -52 16 -70 22 -23 4 39 28 42 28 4 0 -17 5 -31 11 -31
6 0 9 16 7 38 -2 30 -7 38 -25 40 -13 2 -23 8 -23 13 0 5 -4 9 -10 9 -5 0 -10
-22 -10 -50z"/>
<path d="M3768 413 c7 -3 16 -2 19 1 4 3 -2 6 -13 5 -11 0 -14 -3 -6 -6z"/>
<path d="M4070 370 c0 -27 5 -50 10 -50 6 0 10 7 10 15 0 8 8 15 18 15 23 0
42 19 42 41 0 19 -20 29 -56 29 -22 0 -24 -4 -24 -50z m53 15 c1 -5 -6 -11
-15 -13 -11 -2 -18 3 -18 13 0 17 30 18 33 0z"/>
<path d="M4258 413 c7 -3 16 -2 19 1 4 3 -2 6 -13 5 -11 0 -14 -3 -6 -6z"/>
<path d="M4338 413 c7 -3 16 -2 19 1 4 3 -2 6 -13 5 -11 0 -14 -3 -6 -6z"/>
<path d="M4557 402 c-10 -10 -17 -28 -17 -39 0 -26 34 -70 43 -56 4 6 0 16 -8
23 -19 16 -19 44 0 60 16 14 20 30 7 30 -5 0 -16 -8 -25 -18z"/>
<path d="M4610 370 c0 -27 5 -50 10 -50 6 0 10 23 10 50 0 28 -4 50 -10 50 -5
0 -10 -22 -10 -50z"/>
<path d="M4728 370 c4 -54 22 -70 22 -20 0 17 5 30 10 30 6 0 10 -13 10 -30 0
-20 5 -30 15 -30 10 0 15 10 15 29 0 31 -22 57 -40 46 -5 -3 -10 1 -10 9 0 9
-6 16 -12 16 -9 0 -12 -15 -10 -50z"/>
<path d="M4880 370 c0 -27 5 -50 10 -50 6 0 10 9 10 20 0 15 7 20 25 20 14 0
25 5 25 10 0 6 -11 10 -25 10 -14 0 -25 5 -25 10 0 6 11 10 25 10 14 0 25 5
25 10 0 6 -16 10 -35 10 l-35 0 0 -50z"/>
<path d="M5050 369 l0 -50 38 3 c34 3 37 6 40 36 2 21 -1 33 -10 34 -7 0 -20
2 -28 2 -8 1 -14 7 -12 14 1 7 -5 12 -13 12 -11 0 -15 -12 -15 -51z m60 -9 c0
-21 -24 -28 -35 -10 -8 14 3 30 21 30 8 0 14 -9 14 -20z"/>
<path d="M5250 370 c0 -38 4 -50 15 -50 8 0 15 8 15 17 0 15 2 14 14 -3 18
-24 31 -13 17 14 -7 13 -7 22 1 30 17 17 1 27 -17 12 -13 -10 -15 -9 -15 9 0
12 -6 21 -15 21 -11 0 -15 -12 -15 -50z"/>
<path d="M5613 370 c-17 -40 -18 -50 -7 -50 8 0 14 5 14 10 0 6 11 10 25 10
14 0 25 -4 25 -10 0 -5 7 -10 14 -10 12 0 11 9 -6 50 -11 28 -26 50 -32 50 -7
0 -22 -22 -33 -50z m34 -2 c-3 -8 -6 -5 -6 6 -1 11 2 17 5 13 3 -3 4 -12 1
-19z"/>
<path d="M6007 407 c-9 -25 8 -82 26 -85 9 -2 17 1 17 7 0 6 -4 11 -10 11 -14
0 -12 38 2 42 9 3 8 9 -4 21 -20 20 -24 21 -31 4z"/>
<path d="M6278 408 c-3 -7 -3 -30 0 -50 3 -29 9 -38 23 -38 10 0 19 5 19 10 0
6 -4 10 -10 10 -14 0 -12 38 2 42 9 3 8 9 -4 21 -20 20 -24 21 -30 5z"/>
<path d="M6740 411 c0 -5 5 -13 10 -16 6 -3 10 -19 10 -35 0 -16 -4 -32 -10
-35 -15 -9 -12 -25 4 -19 25 10 38 53 24 82 -13 26 -38 42 -38 23z"/>
<path d="M3536 393 c-3 -3 -6 -21 -6 -40 0 -23 5 -33 15 -33 10 0 15 10 15 34
0 34 -11 52 -24 39z"/>
<path d="M3766 389 c-3 -8 -6 -31 -8 -52 -3 -30 -1 -37 11 -35 11 2 17 17 19
42 3 39 -13 73 -22 45z"/>
<path d="M3815 390 c-3 -6 4 -10 17 -10 l23 0 -25 -13 c-36 -18 -32 -41 8 -45
31 -3 32 -2 32 31 0 23 -6 37 -16 41 -22 8 -32 8 -39 -4z m35 -44 c0 -11 -19
-15 -25 -6 -3 5 1 10 9 10 9 0 16 -2 16 -4z"/>
<path d="M3940 385 c-20 -24 3 -65 35 -65 31 0 33 17 3 23 -20 4 -19 4 5 6 28
1 35 19 15 39 -17 17 -43 15 -58 -3z"/>
<path d="M4170 385 c-25 -30 9 -76 46 -60 17 7 17 8 -6 15 -23 7 -23 8 -3 9
29 1 37 16 17 35 -19 20 -38 20 -54 1z"/>
<path d="M4256 389 c-3 -8 -6 -31 -8 -52 -3 -30 -1 -37 11 -35 11 2 17 17 19
42 3 39 -13 73 -22 45z"/>
<path d="M4305 384 c-30 -30 2 -76 41 -59 17 7 17 8 -6 15 l-25 8 28 1 c31 1
34 12 11 35 -20 20 -29 20 -49 0z"/>
<path d="M4386 383 c-6 -16 7 -31 29 -34 6 0 -1 -4 -15 -9 -22 -6 -23 -8 -7
-15 41 -18 65 23 25 43 l-23 11 23 0 c13 1 20 5 17 11 -10 16 -42 12 -49 -7z"/>
<path d="M4661 386 c-10 -11 -7 -17 11 -30 l22 -16 -22 0 c-13 0 -20 -4 -17
-10 10 -16 45 -12 52 5 3 9 -2 22 -13 30 -18 14 -18 14 -1 15 10 0 15 5 12 10
-9 14 -31 12 -44 -4z"/>
<path d="M4975 390 c-3 -6 4 -10 17 -10 l23 0 -25 -13 c-36 -18 -32 -41 8 -45
31 -3 32 -2 32 31 0 23 -6 37 -16 41 -22 8 -32 8 -39 -4z m35 -44 c0 -11 -19
-15 -25 -6 -3 5 1 10 9 10 9 0 16 -2 16 -4z"/>
<path d="M5150 360 c0 -22 5 -40 10 -40 6 0 10 11 10 24 0 13 7 27 16 30 20 8
12 19 -16 23 -17 2 -20 -3 -20 -37z"/>
<path d="M5210 360 c0 -22 5 -40 10 -40 6 0 10 18 10 40 0 22 -4 40 -10 40 -5
0 -10 -18 -10 -40z"/>
<path d="M5345 391 c-4 -7 3 -11 17 -11 l23 0 -25 -13 c-36 -18 -32 -41 8 -45
33 -3 33 -3 30 35 -2 30 -7 39 -25 41 -11 2 -24 -2 -28 -7z m35 -45 c0 -3 -4
-8 -10 -11 -5 -3 -10 -1 -10 4 0 6 5 11 10 11 6 0 10 -2 10 -4z"/>
<path d="M5470 380 c-15 -28 4 -60 35 -60 31 0 33 17 3 23 -20 4 -19 4 5 6 28
1 35 19 15 39 -18 18 -46 14 -58 -8z"/>
<path d="M5710 357 c0 -45 23 -48 28 -4 4 37 22 34 22 -3 0 -37 18 -40 22 -3
4 39 28 42 28 4 0 -17 5 -31 11 -31 6 0 9 16 7 38 l-3 37 -57 1 -58 0 0 -39z"/>
<path d="M5862 388 c-7 -7 -12 -22 -12 -35 0 -27 42 -42 65 -23 28 23 11 70
-25 70 -9 0 -21 -5 -28 -12z m43 -29 c0 -7 -8 -15 -17 -17 -18 -3 -25 18 -11
32 10 10 28 1 28 -15z"/>
<path d="M5949 393 c-6 -20 0 -68 9 -71 7 -2 12 7 12 22 0 13 5 28 10 31 16
10 11 21 -10 21 -11 0 -20 -2 -21 -3z"/>
<path d="M6070 360 c0 -22 5 -40 10 -40 6 0 10 18 10 40 0 22 -4 40 -10 40 -5
0 -10 -18 -10 -40z"/>
<path d="M6110 390 c0 -5 7 -10 15 -10 19 0 19 -9 -2 -32 -21 -23 -13 -30 29
-26 31 4 32 5 10 14 l-23 10 20 18 c11 10 18 23 15 27 -7 12 -64 11 -64 -1z"/>
<path d="M6195 390 c-3 -6 4 -10 17 -11 l23 0 -22 -11 c-13 -6 -23 -19 -23
-30 0 -14 8 -18 35 -18 32 0 35 3 35 28 0 15 -5 33 -12 40 -15 15 -45 16 -53
2z m40 -50 c-3 -5 -10 -10 -16 -10 -5 0 -9 5 -9 10 0 6 7 10 16 10 8 0 12 -4
9 -10z"/>
<path d="M6342 388 c-30 -30 0 -75 43 -64 41 11 29 76 -15 76 -9 0 -21 -5 -28
-12z m46 -31 c2 -10 -3 -17 -12 -17 -18 0 -29 16 -21 31 9 14 29 6 33 -14z"/>
<path d="M6430 360 c0 -22 5 -40 10 -40 6 0 10 8 10 19 0 10 7 24 15 31 18 15
13 23 -15 27 -17 2 -20 -3 -20 -37z"/>
<path d="M6502 391 c-8 -5 -12 -21 -10 -37 2 -23 9 -30 31 -32 32 -4 37 15 5
21 -20 4 -19 4 5 6 28 1 35 19 15 39 -14 14 -28 15 -46 3z"/>
<path d="M6570 395 c0 -16 30 -75 39 -75 9 0 31 53 31 74 0 6 -9 0 -19 -13
l-19 -24 -6 21 c-6 19 -26 32 -26 17z"/>
<path d="M6660 385 c-25 -30 9 -76 46 -60 17 7 17 8 -6 15 l-25 8 28 1 c30 1
32 4 17 32 -13 23 -43 25 -60 4z"/>
<path d="M4815 370 c-4 -6 5 -10 20 -10 15 0 24 4 20 10 -3 6 -12 10 -20 10
-8 0 -17 -4 -20 -10z"/>
<path d="M4457 319 c-3 -13 -1 -19 6 -16 15 5 22 37 9 37 -5 0 -12 -9 -15 -21z"/>
<path d="M3447 243 c-4 -3 -7 -26 -7 -50 0 -32 4 -43 15 -43 8 0 15 6 15 14 0
8 10 16 23 18 26 3 37 46 15 59 -16 10 -52 12 -61 2z m53 -28 c0 -8 -7 -15
-15 -15 -8 0 -15 7 -15 15 0 8 7 15 15 15 8 0 15 -7 15 -15z"/>
<path d="M3570 200 c0 -27 5 -50 10 -50 6 0 10 12 10 28 l1 27 24 -27 c35 -40
45 -35 45 22 0 28 -4 50 -10 50 -5 0 -10 -11 -10 -25 0 -14 -3 -25 -6 -25 -3
0 -15 11 -26 25 -29 37 -38 31 -38 -25z"/>
<path d="M3771 241 c-9 -6 -10 -11 -2 -15 6 -4 11 -23 11 -42 0 -19 5 -34 10
-34 6 0 10 23 10 50 0 51 -4 57 -29 41z"/>
<path d="M3835 226 c-21 -32 -5 -76 28 -76 30 0 47 18 47 50 0 51 -48 68 -75
26z m53 -29 c3 -22 -1 -27 -17 -27 -17 0 -21 6 -21 31 0 24 4 30 18 27 10 -2
18 -14 20 -31z"/>
<path d="M3942 238 c-7 -7 -12 -24 -12 -38 0 -52 61 -71 82 -25 23 51 -32 101
-70 63z m52 -23 c8 -21 -3 -45 -20 -45 -8 0 -17 7 -20 15 -8 21 2 45 20 45 7
0 16 -7 20 -15z"/>
<path d="M4044 225 c-22 -34 -6 -75 29 -75 30 0 47 18 47 50 0 52 -48 68 -76
25z m54 -28 c3 -22 -1 -27 -17 -27 -17 0 -21 6 -21 31 0 24 4 30 18 27 10 -2
18 -14 20 -31z"/>
<path d="M4151 231 c-24 -44 -3 -86 40 -79 32 4 45 31 33 65 -12 36 -57 44
-73 14z m57 -29 c2 -13 -3 -25 -13 -28 -23 -9 -38 10 -30 36 9 27 39 22 43 -8z"/>
<path d="M4290 200 c0 -38 4 -50 15 -50 8 0 15 6 15 14 0 8 10 16 23 18 14 2
23 11 25 27 4 28 -12 41 -50 41 -27 0 -28 -2 -28 -50z m60 15 c0 -8 -7 -15
-15 -15 -8 0 -15 7 -15 15 0 8 7 15 15 15 8 0 15 -7 15 -15z"/>
<path d="M4450 240 c0 -5 5 -10 10 -10 6 0 10 5 10 10 0 6 -4 10 -10 10 -5 0
-10 -4 -10 -10z"/>
<path d="M4560 200 c0 -38 4 -50 15 -50 10 0 15 10 15 31 0 17 4 28 10 24 6
-3 10 -17 10 -31 0 -13 5 -24 10 -24 6 0 10 16 10 35 0 32 -7 40 -32 36 -5 0
-8 6 -8 14 0 8 -7 15 -15 15 -11 0 -15 -12 -15 -50z"/>
<path d="M4715 240 c4 -6 11 -8 16 -5 14 9 11 15 -7 15 -8 0 -12 -5 -9 -10z"/>
<path d="M4863 238 c2 -7 -2 -21 -10 -30 -11 -13 -12 -21 -3 -37 11 -22 60
-30 60 -10 0 6 -7 9 -15 6 -8 -4 -17 -2 -20 3 -4 6 5 10 19 10 14 0 26 4 26 9
0 13 -29 41 -41 41 -6 0 -7 5 -4 10 3 6 1 10 -5 10 -7 0 -10 -6 -7 -12z m27
-38 c0 -5 -4 -10 -10 -10 -5 0 -10 5 -10 10 0 6 5 10 10 10 6 0 10 -4 10 -10z"/>
<path d="M4890 239 c0 -5 5 -7 10 -4 6 3 10 8 10 11 0 2 -4 4 -10 4 -5 0 -10
-5 -10 -11z"/>
<path d="M4656 232 c-3 -5 -3 -25 1 -45 4 -29 10 -37 26 -37 16 0 18 3 9 12
-15 15 -16 48 -1 48 8 0 8 5 -1 15 -14 17 -26 19 -34 7z"/>
<path d="M4499 214 c-11 -14 -9 -19 11 -36 24 -19 24 -19 3 -13 -14 4 -23 2
-23 -4 0 -15 47 -14 56 0 4 7 -4 20 -17 30 -20 16 -21 19 -6 19 10 0 15 5 12
10 -9 14 -21 12 -36 -6z"/>
<path d="M4783 222 c-19 -3 -23 -10 -23 -38 0 -41 17 -46 22 -6 2 15 8 27 13
27 6 0 11 -12 13 -27 4 -37 22 -36 22 1 0 34 -16 48 -47 43z"/>
<path d="M4390 185 c0 -19 5 -35 10 -35 6 0 10 11 10 25 0 14 5 25 10 25 6 0
10 5 10 10 0 6 -9 10 -20 10 -16 0 -20 -7 -20 -35z"/>
<path d="M4450 185 c0 -19 5 -35 10 -35 6 0 10 16 10 35 0 19 -4 35 -10 35 -5
0 -10 -16 -10 -35z"/>
<path d="M4710 185 c0 -24 5 -35 15 -35 10 0 15 11 15 35 0 24 -5 35 -15 35
-10 0 -15 -11 -15 -35z"/>
<path d="M3520 160 c0 -5 7 -10 16 -10 8 0 12 5 9 10 -3 6 -10 10 -16 10 -5 0
-9 -4 -9 -10z"/>
<path d="M3680 150 c0 -11 5 -20 10 -20 6 0 10 9 10 20 0 11 -4 20 -10 20 -5
0 -10 -9 -10 -20z"/>
</g>
</svg>
